<svg xmlns="http://www.w3.org/2000/svg" viewBox="0 0 512 512"><path fill="#ff4f5c" d="M243.5 10.7c-32 2.8-70.4 14.7-97.9 30.4-66.1 37.7-109.1 99-122.8 174.6-3 17-3.3 61.5-.5 77.8 8.8 50.5 27.6 89.4 62.1 129 2.8 3.2 4.5 5.9 4 6.4-.5.4-14.2 11.8-30.4 25.2S22.3 483.7 14.6 490C.8 501.5.8 501.5 140.6 501.8c120 .2 141.8 0 153.3-1.3 123.6-14 218-119.7 218.1-244.1.1-124.9-93.7-230.4-217.6-244.9-11.6-1.3-39.6-1.8-50.9-.8"/><g fill="#fff"><path d="M292 108.1c-11.8 4.8-12.5 21.8-1 27.6 4.4 2.3 4.9 2.3 45.5 2.3s41.1 0 45.5-2.3c11-5.6 11.8-18.5 1.6-26.1-2.7-2-4-2.1-45.9-2.3-27.1-.1-44.1.2-45.7.8m-.6 45.3c-10.9 4.8-11.7 20.4-1.4 26.9 3.5 2.2 3.6 2.2 60.5 2.2 64.9 0 61.7.4 66.3-8.5 3.8-7.7 1.6-15.7-5.7-19.8-3.9-2.2-4.1-2.2-60.2-2.2-44.9.1-57 .4-59.5 1.4M145.7 167c-58.5 9.9-91.8 73.1-66.7 126.7 19.3 41.2 65.4 61.4 109.1 47.7 4.3-1.3 7.9-3 8.2-3.8.6-1.4-11.3-23.5-13.6-25.5-.9-.7-3-.5-7.3.6-20 5.5-41.1-.4-56.4-15.7-37.4-37.2-11.1-100 41.8-100 6.8 0 10.8.7 20.9 3.6 1.9.5 3-.9 9.3-11.5 3.9-6.7 7-12.8 6.8-13.8-1.1-5.8-34.8-11.2-52.1-8.3"/><path d="M202.4 190.7c-3.1 5.4-6.4 11-7.2 12.5-1.5 2.6-1.5 2.7 5.9 10 11.7 11.6 17.6 24.6 18.4 40.7.3 4.6.7 8.6 1 8.9.7.7 23.5 5.1 26.6 5.2 8.4.1 2.3-39.1-9.1-58-7.6-12.7-23.5-29-28.3-29-.9 0-3.9 3.9-7.3 9.7m88.1 8.2c-9.3 5.7-10.7 16.4-3.1 24 3.6 3.6 3.6 3.6 26.4 3.9 25.4.3 27-.1 31.2-7s1.7-16.6-5.2-20.8c-4.8-2.9-44.6-3-49.3-.1m93.4 64.5c-22.7 8.1-28.6 38.1-10.5 53.2 2.9 2.4 4.6 4.6 4.6 6 0 2.5-9.6 25.3-11.4 27-.6.6-5 1.4-9.7 1.8-10.3.7-8.8 2-19.9-17.2-7.5-13.3-8.1-14.6-7-17.2 6.8-16.5-14.2-30.7-25.9-17.5-3.8 4.4-4.5 7.1-3.8 14.3.6 5.3.2 6.8-6.1 22.5-6.6 16.7-6.7 16.8-10.9 18.7-10.8 4.8-9.2 20.1 2.3 21.7 8.8 1.2 14.8-5.8 12.5-14.7-1.1-4.3-.9-5 4.5-18.5 6.5-16.2 7.4-17.5 12.4-17.5 5.1 0 5.6.6 15.5 17.8 8.8 15.3 8.8 15.3 6.4 20.5-6.2 13.2-1 27.7 12.1 33.6 21.9 9.9 43.1-16.2 29.5-36.3-3.2-4.8-3.4-3.6 3.6-20 7.4-17 7.2-16.7 15.4-17.7 20.6-2.5 32.8-22.8 25.4-42.4-5.5-14.7-24.2-23.4-39-18.1M214 280.2c-4.1 8.3-9.7 15.6-16 20.9-2.7 2.3-5 4.7-5 5.2 0 2.7 13.5 24.7 15.1 24.7 4.3 0 20-14.7 27.6-26 5.9-8.8 11.8-22.6 10.4-24.8-.4-.8-25.3-6.2-28.4-6.2-.4 0-2 2.8-3.7 6.2"/></g></svg>